<?xml version="1.0" encoding="utf-8"?>
<!-- Generator: Adobe Illustrator 22.0.0, SVG Export Plug-In . SVG Version: 6.00 Build 0)  -->
<svg version="1.1" id="Layer_1" xmlns="http://www.w3.org/2000/svg" xmlns:xlink="http://www.w3.org/1999/xlink" x="0px" y="0px"
	 viewBox="0 0 52.2 64" style="enable-background:new 0 0 52.2 64;" xml:space="preserve">
<style type="text/css">
	.st0{clip-path:url(#SVGID_2_);fill:#FFFFFF;}
</style>
<g>
	<defs>
		<rect id="SVGID_1_" y="0" width="52.2" height="64"/>
	</defs>
	<clipPath id="SVGID_2_">
		<use xlink:href="#SVGID_1_"  style="overflow:visible;"/>
	</clipPath>
	<path class="st0" d="M46.2,8.3h-8.4C37.5,6.9,36.3,6,35,5.9c-0.7-0.2-1.3-0.7-1.5-1.4L32.8,3c-0.8-1.7-2.5-2.9-4.4-3h-3.6
		c-1.9,0.1-3.6,1.2-4.4,3l-0.6,1.5c-0.3,0.7-0.8,1.2-1.5,1.4C17,6.1,15.9,7,15.5,8.3H5.9C2.7,8.3,0,10.9,0,14.1c0,0,0,0.1,0,0.1
		v43.9C0,61.3,2.6,64,5.8,64h0.1h40.3c3.2,0,5.9-2.6,5.9-5.8v-0.1V14.2c0-3.2-2.6-5.9-5.8-5.9C46.3,8.3,46.3,8.3,46.2,8.3 M17.8,9.5
		c0-0.7,0.4-1.2,0.6-1.2c1.7-0.2,3.2-1.4,3.8-3l0.6-1.5C23.2,3,24,2.4,24.9,2.4h3.6c0.9,0.1,1.7,0.6,2.1,1.4l0.6,1.5
		c0.1,0.2,0.1,0.4,0.2,0.6h-1.8c-0.6,0-1.1,0.4-1.2,1.1c0,0,0,0.1,0,0.1c0,0.6,0.4,1.2,1,1.2c0,0,0.1,0,0.1,0H35
		c0.2,0,0.6,0.5,0.6,1.2v1.2c0,0.6-0.4,1.1-1.1,1.2c0,0-0.1,0-0.1,0H19c-0.6,0-1.1-0.4-1.2-1.1c0,0,0-0.1,0-0.1V9.5z M49.8,58.1
		c0,1.9-1.5,3.5-3.4,3.6c0,0-0.1,0-0.1,0H5.9c-1.9,0-3.5-1.5-3.6-3.4c0,0,0-0.1,0-0.1V14.2c0-1.9,1.5-3.5,3.4-3.6c0,0,0.1,0,0.1,0
		h9.5c0,1.9,1.5,3.5,3.4,3.6c0,0,0.1,0,0.1,0h15.4c1.9,0,3.5-1.5,3.6-3.4v-0.1h8.3c1.9,0,3.5,1.5,3.6,3.4c0,0,0,0.1,0,0.1L49.8,58.1
		z"/>
	<path class="st0" d="M23.7,29.6c-0.6,0-1.1,0.4-1.2,1.1c0,0,0,0.1,0,0.1v2.4H13v-9.5h7.1c0.7,0,1.2-0.5,1.2-1.2s-0.5-1.2-1.2-1.2
		h-8.3c-0.6,0-1.1,0.4-1.2,1.1c0,0,0,0.1,0,0.1v11.9c0,0.6,0.4,1.1,1.1,1.2c0,0,0.1,0,0.1,0h11.9c0.6,0,1.1-0.4,1.2-1.1
		c0,0,0-0.1,0-0.1v-3.6c0-0.6-0.4-1.1-1.1-1.2C23.8,29.6,23.7,29.6,23.7,29.6"/>
	<path class="st0" d="M26.3,20.6l-6.9,7.8l-3.2-3.2c-0.4-0.5-1.2-0.5-1.6,0c0,0,0,0,0,0c-0.5,0.5-0.5,1.3,0,1.8l4.1,4.3
		c0.2,0.2,0.5,0.6,0.8,0.6v-1.2c0.4,0,0.6,0.1,0.8-0.1l7.7-8.5c0.4-0.5,0.4-1.2-0.1-1.6c0,0,0,0,0,0C27.4,20,26.7,20.1,26.3,20.6
		C26.3,20.6,26.3,20.6,26.3,20.6"/>
	<path class="st0" d="M40.3,28.4h-7.1c-0.7,0-1.2,0.5-1.2,1.2c0,0.7,0.5,1.2,1.2,1.2h7.1c0.7,0,1.2-0.5,1.2-1.2S41,28.4,40.3,28.4
		L40.3,28.4z"/>
	<path class="st0" d="M23.7,41.5H11.9c-0.6,0-1.1,0.4-1.2,1.1c0,0,0,0.1,0,0.1v11.9c0,0.6,0.4,1.1,1.1,1.2c0,0,0.1,0,0.1,0h11.9
		c0.6,0,1.1-0.4,1.2-1.1c0,0,0-0.1,0-0.1V42.7c0-0.6-0.4-1.1-1.1-1.2C23.8,41.5,23.7,41.5,23.7,41.5 M22.5,53.3H13v-9.5h9.5
		L22.5,53.3z"/>
	<path class="st0" d="M40.3,47.4h-7.1c-0.7,0-1.2,0.5-1.2,1.2c0,0.7,0.5,1.2,1.2,1.2h7.1c0.7,0,1.2-0.5,1.2-1.2
		C41.5,47.9,41,47.4,40.3,47.4L40.3,47.4z"/>
</g>
</svg>
