<?xml version="1.0" encoding="utf-8"?>
<!-- Generator: Adobe Illustrator 22.0.0, SVG Export Plug-In . SVG Version: 6.00 Build 0)  -->
<svg version="1.1" id="Layer_1" xmlns="http://www.w3.org/2000/svg" xmlns:xlink="http://www.w3.org/1999/xlink" x="0px" y="0px"
	 viewBox="0 0 65.1 65.5" style="enable-background:new 0 0 65.1 65.5;" xml:space="preserve">
<style type="text/css">
	.st0{clip-path:url(#SVGID_2_);fill:#FFFFFF;}
</style>
<g>
	<defs>
		<rect id="SVGID_1_" y="0" width="65.1" height="65.5"/>
	</defs>
	<clipPath id="SVGID_2_">
		<use xlink:href="#SVGID_1_"  style="overflow:visible;"/>
	</clipPath>
	<path class="st0" d="M51,53.6l-11.5-7.9c-1.7-1.1-3.9-0.7-5.1,0.9l-3,4.3c-0.2,0.2-0.4,0.5-0.4,0.9c-0.6,0.4-1.3,0.6-2.1,0.6
		c-1.7,0-4.5-0.9-8.6-5c-6.8-6.8-6.8-9.7-6-12c0.2-0.1,0.4-0.2,0.6-0.4l4.1-3.2c1.6-1.3,1.9-3.6,0.7-5.2l-8.3-11.3
		c-1.7-2.3-3.6-2.6-5.8-0.7C4,16,2.5,17.8,1.4,19.8c-0.5,0.8-0.7,1.7-0.6,2.7c-3.9,15.3,7.7,27.8,11.3,31.4
		c10,9.6,19.2,11.7,25.3,11.7c2.4,0.1,4.7-0.3,6.9-1.1c0.9,0,1.8-0.3,2.6-0.7c1.9-1.3,3.7-2.8,5.2-4.5c0.8-0.8,1.2-1.9,1.1-3
		C52.7,55.1,51.9,54.2,51,53.6 M50,57.8c-1.3,1.5-2.9,2.8-4.6,3.9c-0.4,0.2-0.9,0.3-1.3,0.4c-0.2,0-0.5,0-0.7,0.1
		c-2,0.7-4.1,1.1-6.2,1c-5.6,0-14.1-1.9-23.6-10.9C10.1,49-0.7,37.2,3,23v-0.5C2.9,22,3,21.4,3.3,21c1-1.7,2.3-3.3,3.8-4.7
		c0.4-0.2,0.8-0.4,1.2-0.5c0.4,0,0.9,0.5,1.1,0.9l8.3,11.3c0.4,0.5,0.4,1.3-0.1,1.7c0,0-0.1,0.1-0.1,0.1l-4.1,3.2
		c-0.1,0-0.1,0.1-0.4,0.1c-0.4,0.1-0.7,0.4-0.9,0.7c-1.7,3.8-1.3,7.7,6.2,15.2c3.8,3.8,7.2,5.6,10.3,5.6c1.5,0,2.9-0.4,4-1.3
		c0.2-0.2,0.3-0.4,0.4-0.7c0-0.1,0-0.3,0.1-0.4l3-4.3c0.5-0.5,1.2-0.6,1.8-0.2l11.5,7.9c0.5,0.2,0.8,0.6,1,1.1
		C50.6,57,50.4,57.4,50,57.8"/>
	<path class="st0" d="M30.7,28.1c-2.1,1.3-4.5,2.8-4.5,5.6v1.6c0,0.6,0.4,1.2,1.1,1.2c0,0,0.1,0,0.1,0h8.5c0.7,0,1.2-0.5,1.2-1.2
		c0-0.7-0.5-1.2-1.2-1.2h-7.3v-0.4c0-1.5,1.2-2.3,3.3-3.5c2.3-1.5,5.2-3.3,5.2-7c0.1-1.3-0.5-2.6-1.5-3.5c-1.3-1.1-3-1.5-4.7-1.3
		c-1.9,0.3-3.6,1.4-4.6,3c-0.3,0.6-0.1,1.4,0.5,1.7c0.6,0.3,1.4,0.1,1.7-0.5c0,0,0,0,0,0c0.6-1,1.6-1.6,2.7-1.8c1-0.2,2,0.1,2.8,0.7
		c0.5,0.4,0.8,1,0.7,1.7C34.7,25.3,33.2,26.5,30.7,28.1"/>
	<path class="st0" d="M47.3,19.6c-0.5-0.1-1,0-1.3,0.4l-7.3,8.5c-0.2,0.2-0.3,0.5-0.2,0.9v1.2c0,0.6,0.4,1.2,1.1,1.2
		c0,0,0.1,0,0.1,0h6.1v3.6c0,0.7,0.5,1.2,1.2,1.2c0.7,0,1.2-0.5,1.2-1.2v-3.6h1.2c0.7,0,1.2-0.5,1.2-1.2c0-0.7-0.5-1.2-1.2-1.2h-1.2
		v-8.5C48.1,20.2,47.8,19.7,47.3,19.6 M45.6,29.2h-4.5l4.5-5.2V29.2z"/>
	<path class="st0" d="M63.5,49.9l-4.1,1.3c3.7-5.5,5.7-11.9,5.7-18.5C65.1,14.7,50.4,0,32.3,0C23.8-0.1,15.7,3.2,9.7,9
		c-0.5,0.5-0.5,1.2,0,1.7c0.5,0.5,1.2,0.5,1.7,0C23.6-0.8,42.9-0.2,54.4,12c5.3,5.6,8.2,13.1,8.3,20.8c0,6.2-1.9,12.2-5.3,17.3
		l-0.7-4.1c-0.1-0.7-0.8-1.1-1.5-1c-0.7,0.1-1.1,0.8-1,1.5l1.2,7.3c0,0.4,0.2,0.6,0.6,0.9c0.2,0.1,0.4,0.1,0.6,0.1
		c0.1,0,0.3,0,0.4-0.1l7.3-2.4c0.6-0.2,1-0.9,0.7-1.6c0,0,0,0,0,0C64.7,50,64.1,49.7,63.5,49.9C63.5,49.9,63.5,49.9,63.5,49.9"/>
</g>
</svg>
