<?xml version="1.0" encoding="utf-8"?>
<!-- Generator: Adobe Illustrator 22.0.0, SVG Export Plug-In . SVG Version: 6.00 Build 0)  -->
<svg version="1.1" id="Capa_1" xmlns="http://www.w3.org/2000/svg" xmlns:xlink="http://www.w3.org/1999/xlink" x="0px" y="0px"
	 viewBox="0 0 37.6 37.6" style="enable-background:new 0 0 37.6 37.6;" xml:space="preserve">
<style type="text/css">
	.st0{fill:#FFFFFF;}
</style>
<g>
	<path class="st0" d="M30.8,27c-1.5,0-2.9,0.6-3.8,1.6l-2.2-2.2c2.3-1.8,3.7-4.5,3.7-7.6c0-2.7-1.1-5.2-3-6.9l2.2-2.2
		c0.9,0.6,1.9,1,3.1,1c2.9,0,5.3-2.4,5.3-5.3S33.7,0,30.8,0s-5.3,2.4-5.3,5.3C25.5,6.7,26.1,8,27,9l-2.2,2.2
		c-1.6-1.3-3.7-2.1-5.9-2.1c-2.3,0-4.4,0.8-6,2.1L10.7,9c1-1,1.6-2.3,1.6-3.8C12.1,2.4,9.7,0,6.8,0S1.5,2.4,1.5,5.3s2.4,5.3,5.3,5.3
		c1.1,0,2.1-0.3,3-0.9L12,12c-1.8,1.8-2.9,4.2-2.9,6.9c0,3,1.4,5.7,3.6,7.5l-2.2,2.2c-1-0.9-2.3-1.5-3.7-1.5c-2.9,0-5.3,2.4-5.3,5.3
		s2.4,5.3,5.3,5.3s5.3-2.4,5.3-5.3c0-1.1-0.3-2.1-0.9-3l2.4-2.4l-0.2-0.2c1.6,1.1,3.4,1.7,5.4,1.7c1.9,0,3.6-0.5,5.1-1.5l2.4,2.4
		c-0.5,0.8-0.9,1.8-0.9,2.9c0,2.9,2.4,5.3,5.3,5.3s5.3-2.4,5.3-5.3C36.1,29.4,33.8,27,30.8,27z M30.8,2c1,0,1.7,0.6,1.7,1.7
		S31.7,6,30.8,6s-1.7-1.2-1.7-2.3C29.1,2.6,29.9,2,30.8,2z M27.5,7.8c0-0.5,0.4-1,0.9-1.3l1-0.5l0.8,1.6l0.4-1c0.1,0,0.2,0,0.2,0
		c0.1,0,0.2,0,0.2,0l0.4,1L32.2,6l1.1,0.5c0.5,0.2,0.9,0.8,0.9,1.3v0.8h-6.7V7.8z M6.8,2c1,0,1.7,0.6,1.7,1.7S7.8,6,6.8,6
		S5.1,4.8,5.1,3.7S5.9,2,6.8,2z M10.2,8.6H3.5V7.8c0-0.5,0.4-1,0.9-1.3l1-0.5l0.8,1.6l0.4-1c0.1,0,0.2,0,0.2,0H7l0.4,1L8.2,6
		l1.1,0.5c0.5,0.2,0.9,0.8,0.9,1.3V8.6z M6.8,29c1,0,1.7,0.6,1.7,1.7S7.7,33,6.8,33s-1.7-1.2-1.7-2.3C5.1,29.6,5.9,29,6.8,29z
		 M10.2,35.6H3.5v-0.8c0-0.5,0.4-1,0.9-1.3l1-0.5l0.8,1.6l0.4-1c0.1,0,0.2,0,0.2,0H7l0.4,1L8.2,33l1.1,0.5c0.5,0.2,0.9,0.8,0.9,1.3
		V35.6z M17.2,10.6c-1.4,1.2-2.5,2.6-3.1,4.2h-2.7C12.6,12.7,14.7,11.1,17.2,10.6z M10.4,18.8c0-0.9,0.2-1.8,0.4-2.7h2.8
		c-0.2,0.8-0.3,1.7-0.3,2.6c0,0.8,0.1,1.6,0.3,2.4h-2.8C10.6,20.4,10.4,19.6,10.4,18.8z M11.3,22.5H14c0.7,1.8,1.8,3.4,3.3,4.6
		C14.7,26.6,12.4,24.8,11.3,22.5z M18.2,26c-1.2-1-2.1-2.2-2.7-3.6h2.7V26z M18.2,21.2H15c-0.2-0.8-0.3-1.6-0.3-2.4
		c0-0.9,0.1-1.8,0.4-2.6h3.1C18.2,16.2,18.2,21.2,18.2,21.2z M18.2,14.8h-2.6c0.6-1.3,1.5-2.4,2.6-3.4V14.8z M27.2,18.8
		c0,0.8-0.1,1.6-0.3,2.4H24c0.2-0.8,0.3-1.6,0.3-2.4c0-0.9-0.1-1.8-0.3-2.6h2.8C27,17,27.2,17.9,27.2,18.8z M26.2,14.8h-2.6
		c-0.7-1.6-1.7-3.1-3.1-4.2C22.9,11.1,25,12.7,26.2,14.8z M19.5,11.5c1.1,0.9,2,2.1,2.6,3.4h-2.6V11.5z M19.5,16.1h3.1
		c0.3,0.8,0.4,1.7,0.4,2.6c0,0.8-0.1,1.6-0.3,2.4h-3.2V16.1L19.5,16.1z M19.5,22.5h2.7c-0.6,1.4-1.5,2.6-2.7,3.6V22.5z M23.6,22.5
		h2.7c-1.2,2.4-3.4,4.1-6.1,4.6C21.8,25.8,22.9,24.2,23.6,22.5z M30.8,29c1,0,1.7,0.6,1.7,1.7S31.7,33,30.8,33s-1.7-1.2-1.7-2.3
		C29.1,29.6,29.9,29,30.8,29z M34.2,35.6h-6.7v-0.8c0-0.5,0.4-1,0.9-1.3l1.1-0.5l0.8,1.6l0.4-1c0.1,0,0.1,0,0.2,0s0.2,0,0.2,0l0.4,1
		l0.7-1.5l1.1,0.5c0.5,0.2,0.9,0.8,0.9,1.3V35.6z"/>
</g>
</svg>
