<?xml version="1.0" encoding="utf-8"?>
<!-- Generator: Adobe Illustrator 22.0.0, SVG Export Plug-In . SVG Version: 6.00 Build 0)  -->
<svg version="1.1" id="Layer_1" xmlns="http://www.w3.org/2000/svg" xmlns:xlink="http://www.w3.org/1999/xlink" x="0px" y="0px"
	 viewBox="0 0 62 64.4" style="enable-background:new 0 0 62 64.4;" xml:space="preserve">
<style type="text/css">
	.st0{clip-path:url(#SVGID_2_);fill:#FFFFFF;}
</style>
<g>
	<defs>
		<rect id="SVGID_1_" y="0" width="62" height="64.4"/>
	</defs>
	<clipPath id="SVGID_2_">
		<use xlink:href="#SVGID_1_"  style="overflow:visible;"/>
	</clipPath>
	<path class="st0" d="M60.8,11.7c0-0.2-0.1-0.3-0.2-0.5l-6.9-8.8C52.5,1,50.7,0.1,48.9,0H13.1c-1.9,0.1-3.6,0.9-4.8,2.4l-6.9,8.8
		c-0.1,0.1-0.1,0.2-0.2,0.5C0.4,12.3,0,13.3,0,14.3v46.5c0,1.9,1.5,3.5,3.4,3.6c0,0,0.1,0,0.1,0h54.8c1.9,0,3.5-1.5,3.6-3.4
		c0,0,0-0.1,0-0.1V14.3C62,13.3,61.6,12.3,60.8,11.7 M48.9,2.4C50,2.5,51,3,51.7,3.8l5.5,6.9H37V2.4H48.9z M34.6,2.4v21.5
		c0,0.6-0.4,1.2-1.1,1.2c0,0-0.1,0-0.1,0h-4.8c-0.6,0-1.2-0.4-1.2-1.1c0,0,0-0.1,0-0.1V2.4H34.6z M10.3,3.8C11,3,12,2.5,13.1,2.4H25
		v8.3H4.8L10.3,3.8z M59.6,60.8c0,0.6-0.4,1.2-1.1,1.2c0,0-0.1,0-0.1,0H3.6c-0.6,0-1.2-0.4-1.2-1.1c0,0,0-0.1,0-0.1V14.3
		c0-0.6,0.4-1.2,1.1-1.2c0,0,0.1,0,0.1,0H25v10.7c0,1.9,1.5,3.5,3.4,3.6c0,0,0.1,0,0.1,0h4.8c1.9,0,3.5-1.5,3.6-3.4c0,0,0-0.1,0-0.1
		V13.1h21.5c0.6,0,1.2,0.4,1.2,1.1c0,0,0,0.1,0,0.1V60.8z"/>
	<path class="st0" d="M52.5,54.8H29.8c-0.7,0-1.2,0.5-1.2,1.2c0,0.7,0.5,1.2,1.2,1.2h22.7c0.7,0,1.2-0.5,1.2-1.2
		C53.7,55.4,53.1,54.8,52.5,54.8"/>
	<path class="st0" d="M48.5,36.1c-0.4-0.5-1.2-0.5-1.6,0c0,0,0,0,0,0l-4.8,4.8c-0.5,0.5-0.5,1.2,0,1.7c0.5,0.5,1.2,0.5,1.7,0
		l2.7-2.7v10.2c0,0.7,0.5,1.2,1.2,1.2c0.7,0,1.2-0.5,1.2-1.2V39.8l2.7,2.7c0.2,0.2,0.5,0.3,0.8,0.4c0.3,0,0.6-0.1,0.8-0.4
		c0.5-0.4,0.5-1.2,0-1.6c0,0,0,0,0,0L48.5,36.1z"/>
	<path class="st0" d="M30.6,42.6l2.7-2.7v10.2c0,0.7,0.5,1.2,1.2,1.2c0.7,0,1.2-0.5,1.2-1.2V39.8l2.7,2.7c0.2,0.2,0.5,0.3,0.8,0.4
		c0.3,0,0.6-0.1,0.8-0.4c0.5-0.4,0.5-1.2,0-1.6c0,0,0,0,0,0l-4.8-4.8c-0.4-0.5-1.2-0.5-1.6,0c0,0,0,0,0,0L29,40.9
		c-0.5,0.5-0.5,1.2,0,1.7C29.4,43,30.2,43,30.6,42.6"/>
</g>
</svg>
