<?xml version="1.0" encoding="utf-8"?>
<!-- Generator: Adobe Illustrator 22.0.0, SVG Export Plug-In . SVG Version: 6.00 Build 0)  -->
<svg version="1.1" id="Layer_1" xmlns="http://www.w3.org/2000/svg" xmlns:xlink="http://www.w3.org/1999/xlink" x="0px" y="0px"
	 viewBox="0 0 47.3 40.8" style="enable-background:new 0 0 47.3 40.8;" xml:space="preserve">
<style type="text/css">
	.st0{fill:#FFFFFF;}
</style>
<g id="uploading-archive" transform="translate(-12.731 3)">
	<g id="Group_202">
		<g id="Group_201" transform="translate(10 -15)">
			<path id="Path_560" class="st0" d="M26.1,39.1l-6.5-8.5c-1-1-0.8-1.7,0.6-1.7h3.9V16c0-2.2-0.2-4,2-4l0,0c2.2,0,2,1.8,2,4v12.8
				H32c1.5,0,1.7,0.7,0.6,1.7L26.1,39.1z"/>
			<path id="Path_561" class="st0" d="M49,25.8h-3c-0.6,0-1,0.4-1,1v21.9H7.8V26.8c0-0.6-0.4-1-1-1h-3c-0.6,0-1,0.4-1,1v20.5
				c0,3,2.5,5.5,5.5,5.5h36.2c3,0,5.5-2.5,5.5-5.5V26.8C50,26.2,49.6,25.8,49,25.8z"/>
		</g>
	</g>
</g>
</svg>
