<svg xmlns="http://www.w3.org/2000/svg" width="665" height="254" viewBox="0 0 665 254">
  <metadata><?xpacket begin="﻿" id="W5M0MpCehiHzreSzNTczkc9d"?>
<x:xmpmeta xmlns:x="adobe:ns:meta/" x:xmptk="Adobe XMP Core 5.6-c138 79.159824, 2016/09/14-01:09:01        ">
   <rdf:RDF xmlns:rdf="http://www.w3.org/1999/02/22-rdf-syntax-ns#">
      <rdf:Description rdf:about=""/>
   </rdf:RDF>
</x:xmpmeta>
                                                                                                    
                                                                                                    
                                                                                                    
                                                                                                    
                                                                                                    
                                                                                                    
                                                                                                    
                                                                                                    
                                                                                                    
                                                                                                    
                                                                                                    
                                                                                                    
                                                                                                    
                                                                                                    
                                                                                                    
                                                                                                    
                                                                                                    
                                                                                                    
                                                                                                    
                                                                                                    
                           
<?xpacket end="w"?></metadata>
<defs>
    <style>
      .cls-1 {
        fill: #44c8f5;
      }

      .cls-1, .cls-2 {
        fill-rule: evenodd;
      }

      .cls-2 {
        fill: #fff;
      }
    </style>
  </defs>
  <path class="cls-1" d="M222.525,65.42A32.918,32.918,0,0,0,231,64.35v52H198.621V87.719a34.375,34.375,0,0,0-34.43-34.34H135.648V21h50.306a38.162,38.162,0,0,0-.712,7.225A37.247,37.247,0,0,0,222.525,65.42ZM231,138.649v51.912a32.9,32.9,0,0,0-8.473-1.071,37.323,37.323,0,0,0-37.283,37.284,38.165,38.165,0,0,0,.712,7.225H135.648V201.531h28.543a34.374,34.374,0,0,0,34.43-34.339V138.649H231ZM113.35,201.531V234h-50.4a38.214,38.214,0,0,0,.713-7.225A37.3,37.3,0,0,0,26.474,189.49,32.894,32.894,0,0,0,18,190.561V138.649H50.377v28.543a34.354,34.354,0,0,0,34.341,34.339H113.35ZM62.954,21a38.211,38.211,0,0,1,.713,7.225A37.228,37.228,0,0,1,26.474,65.42,32.908,32.908,0,0,1,18,64.35v52H50.377V87.719a34.355,34.355,0,0,1,34.341-34.34H113.35V21h-50.4Z"/>
  <path class="cls-2" d="M148.833,171.983H99.122a21.14,21.14,0,0,1-21.139-21.14V101.132a21.14,21.14,0,0,1,21.14-21.14h49.711a21.14,21.14,0,0,1,21.14,21.14v49.711A21.14,21.14,0,0,1,148.833,171.983Z"/>
  <path class="cls-1" d="M274,21.7h78.2V44.708H300.665V59.491h46.667V80.828H300.665v15.48h52.224V119.32H274V21.7Zm92.648,0h28.473l23.2,37.794L441.505,21.7h28.474V119.32h-26.8V63.255l-24.862,38.214h-0.56L393.032,63.536V119.32H366.645V21.7ZM520.821,21H546.8l41.389,98.322H559.3l-7.083-17.432h-37.5l-6.944,17.432H479.432Zm23.616,59.829L533.6,53.076,522.627,80.828h21.81Zm45.145,23.71L606.945,88.08c4.722,5.718,9.169,9.066,15.137,9.066,6.808,0,11.115-4.6,11.115-13.669V21.7H660V83.618c0,12.273-3.052,20.92-9.58,27.474-6.393,6.415-15.557,9.9-26.668,9.9C606.8,120.993,596.39,113.88,589.582,104.538Z"/>
  <path class="cls-2" d="M326.745,138.721a31.033,31.033,0,0,1,9.868,4.818,20.873,20.873,0,0,1,6.309,7.569,22.365,22.365,0,0,1,2.193,9.98,24.525,24.525,0,0,1-1.3,8.394,22.284,22.284,0,0,1-3.5,6.333,23.018,23.018,0,0,1-4.863,4.61,31.481,31.481,0,0,1-5.55,3.1,42.611,42.611,0,0,1,8.019,3.235,26.87,26.87,0,0,1,6.515,4.748,20.933,20.933,0,0,1,4.389,6.608,22.294,22.294,0,0,1,1.643,8.808,24.7,24.7,0,0,1-2.465,11.15,22.9,22.9,0,0,1-7.064,8.325,33.545,33.545,0,0,1-11.037,5.163,53.239,53.239,0,0,1-14.262,1.789H273V137h40.861A44.965,44.965,0,0,1,326.745,138.721Zm1.354,36.8q6.162-4.423,6.166-12.992a13.961,13.961,0,0,0-5.479-11.612q-5.483-4.285-15.754-4.285H283.851v33.31h28.355Q321.935,179.944,328.1,175.523Zm5.219,43.632q6.308-4.561,6.305-12.856a14.068,14.068,0,0,0-6.443-12.368q-6.44-4.35-19.045-4.351H283.851v34.132h32.2Q327.01,223.712,333.318,219.155Zm103.9-7.072a37.451,37.451,0,0,1-7.76,11.906,36.281,36.281,0,0,1-11.817,8.051A37.1,37.1,0,0,1,402.811,235a36.128,36.128,0,0,1-14.7-2.959,37.208,37.208,0,0,1-11.675-7.983,35.9,35.9,0,0,1-7.693-11.768A37.553,37.553,0,0,1,366,197.974a38.078,38.078,0,0,1,2.745-14.382,36.1,36.1,0,0,1,19.439-19.959,37.508,37.508,0,0,1,41.414,7.983,35.876,35.876,0,0,1,7.693,11.768A38.38,38.38,0,0,1,437.22,212.083Zm-10.028-25.026a27.2,27.2,0,0,0-5.563-8.852,26.762,26.762,0,0,0-8.38-5.973,24.834,24.834,0,0,0-10.438-2.2,25.854,25.854,0,0,0-10.581,2.129,23.584,23.584,0,0,0-8.171,5.9,28.249,28.249,0,0,0-5.29,8.787,29.815,29.815,0,0,0-1.924,10.777,29.418,29.418,0,0,0,1.995,10.847,26.928,26.928,0,0,0,5.492,8.79,26.39,26.39,0,0,0,8.313,5.9,24.776,24.776,0,0,0,10.438,2.2,25.834,25.834,0,0,0,10.577-2.127A24.707,24.707,0,0,0,421.9,217.4a26.829,26.829,0,0,0,5.357-8.718A30.845,30.845,0,0,0,427.192,187.057Zm46.155-15.027a64.075,64.075,0,0,0-10.1,3.785l-3.157-8.672a70.7,70.7,0,0,1,11.948-4.335,55.051,55.051,0,0,1,13.875-1.584q14.557,0,22.391,7.227t7.83,21.4v43.493H505.971V222.612a34.8,34.8,0,0,1-9.957,8.533q-6.256,3.717-15.729,3.717a34.666,34.666,0,0,1-9.688-1.375,26.387,26.387,0,0,1-8.514-4.2,21.428,21.428,0,0,1-6.045-6.951,20.031,20.031,0,0,1-2.268-9.773,21.752,21.752,0,0,1,2.2-9.978,19.688,19.688,0,0,1,6.251-7.227,29.95,29.95,0,0,1,9.612-4.4,46.824,46.824,0,0,1,12.3-1.514,75.614,75.614,0,0,1,11.951.825,86.785,86.785,0,0,1,9.89,2.2v-2.478q0-9.633-5.563-14.521t-15.591-4.885A42.4,42.4,0,0,0,473.347,172.03Zm-3.383,29.248a12.846,12.846,0,0,0-5.34,10.873,12.359,12.359,0,0,0,1.437,6.057,13.973,13.973,0,0,0,3.9,4.473,17.8,17.8,0,0,0,5.681,2.821,23.46,23.46,0,0,0,6.778.964,28.894,28.894,0,0,0,9.24-1.445,24.651,24.651,0,0,0,7.533-3.991,18.915,18.915,0,0,0,5.064-6.057,16.416,16.416,0,0,0,1.849-7.777v-6.882q-3.975-1.1-9.1-2.065a64.123,64.123,0,0,0-11.705-.962Q475.3,197.287,469.964,201.278Zm79.278,32.07H538.665v-71.16h10.577v18.581a37.867,37.867,0,0,1,4.808-8.119,32.276,32.276,0,0,1,6.594-6.4,28.032,28.032,0,0,1,8.1-4.06,29.027,29.027,0,0,1,9.478-1.239v11.425H577.4a29.063,29.063,0,0,0-10.92,2.065,24.712,24.712,0,0,0-9,6.194,29.33,29.33,0,0,0-6.045,10.253,41.74,41.74,0,0,0-2.2,14.109v28.353Zm99.181,0V219.033a55.508,55.508,0,0,1-4.879,6.057,33.543,33.543,0,0,1-5.974,5.093,27.727,27.727,0,0,1-7.349,3.44,30.712,30.712,0,0,1-9,1.239,32.6,32.6,0,0,1-12.5-2.478,33.263,33.263,0,0,1-10.854-7.225,35.275,35.275,0,0,1-7.692-11.631,44.124,44.124,0,0,1,0-31.381,35.254,35.254,0,0,1,7.692-11.631,34.223,34.223,0,0,1,10.854-7.3,31.874,31.874,0,0,1,12.5-2.546,31.415,31.415,0,0,1,9.068,1.239,30.341,30.341,0,0,1,7.42,3.3,32.055,32.055,0,0,1,5.974,4.816,43.093,43.093,0,0,1,4.741,5.782V137H659v96.348H648.423ZM646.7,186.471a26.052,26.052,0,0,0-5.768-8.628,27,27,0,0,0-8.242-5.546,23.859,23.859,0,0,0-9.549-1.987,25.556,25.556,0,0,0-9.751,1.848,22.811,22.811,0,0,0-7.9,5.341,25.493,25.493,0,0,0-5.358,8.628,31.767,31.767,0,0,0-2,11.572,30.834,30.834,0,0,0,2,11.368,26.638,26.638,0,0,0,5.425,8.7,23.437,23.437,0,0,0,7.965,5.547,24.457,24.457,0,0,0,9.617,1.915,23.856,23.856,0,0,0,9.549-1.984,27.036,27.036,0,0,0,8.242-5.547A25.9,25.9,0,0,0,646.7,209a29.261,29.261,0,0,0,2.13-11.3A28.753,28.753,0,0,0,646.7,186.471Z"/>
  <path class="cls-2" d="M245,27.2A23.15,23.15,0,1,1,221.851,4,23.173,23.173,0,0,1,245,27.2Zm-195.7,0A23.15,23.15,0,1,1,26.149,4,23.174,23.174,0,0,1,49.3,27.2Zm0,198.6a23.15,23.15,0,1,1-23.15-23.2A23.174,23.174,0,0,1,49.3,225.8Zm195.7,0a23.15,23.15,0,1,1-23.149-23.2A23.173,23.173,0,0,1,245,225.8Z"/>
</svg>
