<svg xmlns="http://www.w3.org/2000/svg" width="249" height="254" viewBox="0 0 249 254">
  <metadata><?xpacket begin="﻿" id="W5M0MpCehiHzreSzNTczkc9d"?>
<x:xmpmeta xmlns:x="adobe:ns:meta/" x:xmptk="Adobe XMP Core 5.6-c138 79.159824, 2016/09/14-01:09:01        ">
   <rdf:RDF xmlns:rdf="http://www.w3.org/1999/02/22-rdf-syntax-ns#">
      <rdf:Description rdf:about=""/>
   </rdf:RDF>
</x:xmpmeta>
                                                                                                    
                                                                                                    
                                                                                                    
                                                                                                    
                                                                                                    
                                                                                                    
                                                                                                    
                                                                                                    
                                                                                                    
                                                                                                    
                                                                                                    
                                                                                                    
                                                                                                    
                                                                                                    
                                                                                                    
                                                                                                    
                                                                                                    
                                                                                                    
                                                                                                    
                                                                                                    
                           
<?xpacket end="w"?></metadata>
<defs>
    <style>
      .cls-1 {
        fill: #44c8f5;
      }

      .cls-1, .cls-2 {
        fill-rule: evenodd;
      }

      .cls-2 {
        fill: #fff;
      }
    </style>
  </defs>
  <path class="cls-1" d="M222.525,65.42A32.918,32.918,0,0,0,231,64.35v52H198.621V87.719a34.375,34.375,0,0,0-34.43-34.34H135.648V21h50.306a38.162,38.162,0,0,0-.712,7.225A37.247,37.247,0,0,0,222.525,65.42ZM231,138.649v51.912a32.9,32.9,0,0,0-8.473-1.071,37.323,37.323,0,0,0-37.283,37.284,38.165,38.165,0,0,0,.712,7.225H135.648V201.531h28.543a34.374,34.374,0,0,0,34.43-34.339V138.649H231ZM113.35,201.531V234h-50.4a38.214,38.214,0,0,0,.713-7.225A37.3,37.3,0,0,0,26.474,189.49,32.894,32.894,0,0,0,18,190.561V138.649H50.377v28.543a34.354,34.354,0,0,0,34.341,34.339H113.35ZM62.954,21a38.211,38.211,0,0,1,.713,7.225A37.228,37.228,0,0,1,26.474,65.42,32.908,32.908,0,0,1,18,64.35v52H50.377V87.719a34.355,34.355,0,0,1,34.341-34.34H113.35V21h-50.4Z"/>
  <path class="cls-2" d="M148.833,171.983H99.122a21.14,21.14,0,0,1-21.139-21.14V101.132a21.14,21.14,0,0,1,21.14-21.14h49.711a21.14,21.14,0,0,1,21.14,21.14v49.711A21.14,21.14,0,0,1,148.833,171.983Z"/>
  <path class="cls-2" d="M245,27.2A23.15,23.15,0,1,1,221.851,4,23.173,23.173,0,0,1,245,27.2Zm-195.7,0A23.15,23.15,0,1,1,26.149,4,23.174,23.174,0,0,1,49.3,27.2Zm0,198.6a23.15,23.15,0,1,1-23.15-23.2A23.174,23.174,0,0,1,49.3,225.8Zm195.7,0a23.15,23.15,0,1,1-23.149-23.2A23.173,23.173,0,0,1,245,225.8Z"/>
</svg>
