<?xml version="1.0" encoding="utf-8"?>
<!-- Generator: Adobe Illustrator 22.0.0, SVG Export Plug-In . SVG Version: 6.00 Build 0)  -->
<svg version="1.1" id="Layer_1" xmlns="http://www.w3.org/2000/svg" xmlns:xlink="http://www.w3.org/1999/xlink" x="0px" y="0px"
	 viewBox="0 0 51 40.3" style="enable-background:new 0 0 51 40.3;" xml:space="preserve">
<style type="text/css">
	.st0{fill:#C9AF70;}
	.st1{clip-path:url(#SVGID_2_);fill:#FFFFFF;}
</style>
<circle class="st0" cx="25" cy="20.1" r="20"/>
<g>
	<defs>
		<rect id="SVGID_1_" x="12.2" y="10.1" width="25.4" height="20.1"/>
	</defs>
	<clipPath id="SVGID_2_">
		<use xlink:href="#SVGID_1_"  style="overflow:visible;"/>
	</clipPath>
	<path class="st1" d="M25,18.3c1.1,0,2-0.9,2-2c0-1.1-0.9-2-2-2c-1.1,0-2,0.9-2,2C23,17.4,23.9,18.3,25,18.3"/>
	<path class="st1" d="M37.3,10.1H12.6c-0.2,0-0.4,0.2-0.4,0.4v19.3c0,0.2,0.2,0.4,0.4,0.4h24.6c0.2,0,0.4-0.2,0.4-0.4V10.5
		C37.7,10.3,37.5,10.1,37.3,10.1 M35.3,26.9l-5.5-5.7c-0.1-0.1-0.2-0.1-0.2,0l-3.8,3.4l-4.9-6.1c0,0-0.1-0.1-0.1-0.1
		c-0.1,0-0.1,0-0.1,0.1l-5.8,7.8V12.5h20.6L35.3,26.9L35.3,26.9z"/>
</g>
</svg>
