<?xml version="1.0" encoding="utf-8"?>
<!-- Generator: Adobe Illustrator 22.0.0, SVG Export Plug-In . SVG Version: 6.00 Build 0)  -->
<svg version="1.1" id="Capa_1" xmlns="http://www.w3.org/2000/svg" xmlns:xlink="http://www.w3.org/1999/xlink" x="0px" y="0px"
	 viewBox="0 0 513.3 513.3" style="enable-background:new 0 0 513.3 513.3;" xml:space="preserve">
<style type="text/css">
	.st0{fill:#7F7F7F;}
</style>
<g>
	<g>
		<g>
			<polygon class="st0" points="177.5,305.9 42.8,440.6 42.8,342.2 0,342.2 0,513.3 171.1,513.3 171.1,470.5 74.9,470.5 
				209.6,335.8 			"/>
			<polygon class="st0" points="470.5,440.6 72.7,42.8 171.1,42.8 171.1,0 0,0 0,171.1 42.8,171.1 42.8,72.7 440.6,470.5 
				342.2,470.5 342.2,513.3 513.3,513.3 513.3,342.2 470.5,342.2 			"/>
			<polygon class="st0" points="342.2,0 342.2,42.8 442.7,42.8 308,177.5 337.9,207.5 470.5,74.9 470.5,171.1 513.3,171.1 513.3,0 
							"/>
		</g>
	</g>
</g>
</svg>
