<?xml version="1.0" encoding="utf-8"?>
<!-- Generator: Adobe Illustrator 22.0.0, SVG Export Plug-In . SVG Version: 6.00 Build 0)  -->
<svg version="1.1" id="Layer_1" xmlns="http://www.w3.org/2000/svg" xmlns:xlink="http://www.w3.org/1999/xlink" x="0px" y="0px"
	 viewBox="0 0 30.3 23.9" style="enable-background:new 0 0 30.3 23.9;" xml:space="preserve">
<style type="text/css">
	.st0{clip-path:url(#SVGID_2_);fill:#FFFFFF;}
</style>
<g>
	<defs>
		<rect id="SVGID_1_" y="0" width="30.3" height="23.9"/>
	</defs>
	<clipPath id="SVGID_2_">
		<use xlink:href="#SVGID_1_"  style="overflow:visible;"/>
	</clipPath>
	<path class="st0" d="M29.8,0H0.5C0.2,0,0,0.2,0,0.5v23c0,0.3,0.2,0.5,0.5,0.5h29.4c0.3,0,0.5-0.2,0.5-0.5v-23
		C30.3,0.2,30.1,0,29.8,0 M27.4,20.1l-6.6-6.8c-0.1-0.1-0.2-0.1-0.3,0l-4.6,4l-5.9-7.2c0,0-0.1-0.1-0.2-0.1c-0.1,0-0.1,0-0.2,0.1
		l-6.9,9.3V2.9h24.6L27.4,20.1L27.4,20.1z"/>
	<path class="st0" d="M20.2,9.8c1.3,0,2.4-1.1,2.4-2.4s-1.1-2.4-2.4-2.4s-2.4,1.1-2.4,2.4C17.8,8.8,18.9,9.8,20.2,9.8"/>
</g>
</svg>
