<?xml version="1.0" encoding="utf-8"?>
<!-- Generator: Adobe Illustrator 22.0.0, SVG Export Plug-In . SVG Version: 6.00 Build 0)  -->
<svg version="1.1" id="Layer_1" xmlns="http://www.w3.org/2000/svg" xmlns:xlink="http://www.w3.org/1999/xlink" x="0px" y="0px"
	 viewBox="0 0 106.1 77.5" style="enable-background:new 0 0 106.1 77.5;" xml:space="preserve">
<style type="text/css">
	.st0{clip-path:url(#SVGID_2_);fill:#FFBB00;}
	.st1{clip-path:url(#SVGID_2_);fill:#FFFFFF;}
</style>
<g>
	<defs>
		<rect id="SVGID_1_" y="0" width="106.1" height="77.5"/>
	</defs>
	<clipPath id="SVGID_2_">
		<use xlink:href="#SVGID_1_"  style="overflow:visible;"/>
	</clipPath>
	<path class="st0" d="M33.6,20c7.5,0,13.6,6.1,13.6,13.6S41,47.1,33.6,47.1S20,41,20,33.6S26.1,20,33.6,20"/>
	<path class="st0" d="M33.6,14.8L33.6,14.8c-0.9,0-1.6-0.7-1.6-1.6V1.6c0-0.9,0.7-1.6,1.6-1.6c0.9,0,1.6,0.7,1.6,1.6v11.6
		C35.2,14.1,34.5,14.8,33.6,14.8"/>
	<path class="st0" d="M33.6,67.1L33.6,67.1c-0.9,0-1.6-0.7-1.6-1.6V53.9c0-0.9,0.7-1.6,1.6-1.6c0.9,0,1.6,0.7,1.6,1.6v11.6
		C35.2,66.4,34.5,67.1,33.6,67.1L33.6,67.1z"/>
	<path class="st0" d="M46.8,20.3L46.8,20.3c-0.6-0.6-0.6-1.7,0-2.3L55,9.9c0.6-0.6,1.7-0.6,2.3,0c0.6,0.6,0.6,1.7,0,2.3l-8.2,8.2
		C48.5,21,47.4,21,46.8,20.3"/>
	<path class="st0" d="M9.8,57.3L9.8,57.3c-0.6-0.6-0.6-1.7,0-2.3l8.2-8.2c0.6-0.6,1.7-0.6,2.3,0c0.6,0.6,0.6,1.7,0,2.3l-8.2,8.2
		C11.5,57.9,10.5,57.9,9.8,57.3L9.8,57.3z"/>
	<path class="st0" d="M52.3,33.6L52.3,33.6c0-0.9,0.7-1.6,1.6-1.6h11.6c0.9,0,1.6,0.7,1.6,1.6c0,0.9-0.7,1.6-1.6,1.6H53.9
		C53,35.2,52.3,34.5,52.3,33.6"/>
	<path class="st0" d="M0,33.6L0,33.6c0-0.9,0.7-1.6,1.6-1.6h11.6c0.9,0,1.6,0.7,1.6,1.6c0,0.9-0.7,1.6-1.6,1.6H1.6
		C0.7,35.2,0,34.5,0,33.6"/>
	<path class="st0" d="M46.8,46.8L46.8,46.8c0.6-0.6,1.7-0.6,2.3,0l8.2,8.2c0.6,0.6,0.6,1.7,0,2.3c-0.6,0.6-1.7,0.6-2.3,0l-8.2-8.2
		C46.2,48.5,46.2,47.4,46.8,46.8"/>
	<path class="st0" d="M9.8,9.8L9.8,9.8c0.6-0.6,1.7-0.6,2.3,0l8.2,8.2c0.6,0.6,0.7,1.7,0,2.3c0,0,0,0,0,0c-0.6,0.6-1.7,0.6-2.3,0
		l-8.2-8.2C9.2,11.5,9.2,10.5,9.8,9.8L9.8,9.8z"/>
	<path class="st1" d="M95.7,57.3h-0.1c3.4-7.8-0.2-16.8-8-20.1c-4.6-2-9.9-1.6-14.2,1.1c-4.4-10.9-16.8-16.2-27.7-11.8
		c-9,3.6-14.4,12.9-13.1,22.5h-0.2c-7.9,0-14.3,6.4-14.3,14.3c0,7.9,6.4,14.3,14.3,14.3h0h63.3c5.6,0.1,10.2-4.3,10.4-9.9
		c0.1-5.6-4.3-10.2-9.9-10.3C96,57.3,95.9,57.3,95.7,57.3L95.7,57.3z"/>
</g>
</svg>
